<svg  viewBox="0 0 24 24"  xmlns="http://www.w3.org/2000/svg">
<path d="M12 7C11.7167 7 11.479 7.096 11.287 7.288C11.0957 7.47933 11 7.71667 11 8L11 12.025C11 12.3083 11.0957 12.5417 11.287 12.725C11.479 12.9083 11.7167 13 12 13C12.2833 13 12.5207 12.9043 12.712 12.713C12.904 12.521 13 12.2833 13 12L13 7.975C13 7.69167 12.904 7.45833 12.712 7.275C12.5207 7.09167 12.2833 7 12 7ZM12 15C11.7167 15 11.479 15.096 11.287 15.288C11.0957 15.4793 11 15.7167 11 16C11 16.2833 11.0957 16.521 11.287 16.713C11.479 16.9043 11.7167 17 12 17C12.2833 17 12.5207 16.9043 12.712 16.713C12.904 16.521 13 16.2833 13 16C13 15.7167 12.904 15.4793 12.712 15.288C12.5207 15.096 12.2833 15 12 15ZM12 2C13.3833 2 14.6833 2.26267 15.9 2.788C17.1167 3.31267 18.175 4.025 19.075 4.925C19.975 5.825 20.6873 6.88333 21.212 8.1C21.7373 9.31667 22 10.6167 22 12C22 13.3833 21.7373 14.6833 21.212 15.9C20.6873 17.1167 19.975 18.175 19.075 19.075C18.175 19.975 17.1167 20.6877 15.9 21.213C14.6833 21.7377 13.3833 22 12 22C10.6167 22 9.31667 21.7377 8.1 21.213C6.88333 20.6877 5.825 19.975 4.925 19.075C4.025 18.175 3.31267 17.1167 2.788 15.9C2.26267 14.6833 2 13.3833 2 12C2 10.6167 2.26267 9.31667 2.788 8.1C3.31267 6.88333 4.025 5.825 4.925 4.925C5.825 4.025 6.88334 3.31267 8.1 2.788C9.31667 2.26267 10.6167 2 12 2ZM12 4C9.78333 4 7.89567 4.779 6.337 6.337C4.779 7.89567 4 9.78333 4 12C4 14.2167 4.779 16.1043 6.337 17.663C7.89567 19.221 9.78333 20 12 20C14.2167 20 16.104 19.221 17.662 17.663C19.2207 16.1043 20 14.2167 20 12C20 9.78333 19.2207 7.89567 17.662 6.337C16.104 4.779 14.2167 4 12 4Z" fill="black"/>
</svg>
